<?xml version="1.0" standalone="no"?>
<!DOCTYPE svg PUBLIC "-//W3C//DTD SVG 20010904//EN"
 "http://www.w3.org/TR/2001/REC-SVG-20010904/DTD/svg10.dtd">
<svg version="1.0" xmlns="http://www.w3.org/2000/svg"
 width="121.000000pt" height="121.000000pt" viewBox="0 0 121.000000 121.000000"
 preserveAspectRatio="xMidYMid meet">
<metadata>
Created by potrace 1.11, written by Peter Selinger 2001-2013
</metadata>
<g transform="translate(0.000000,121.000000) scale(0.100000,-0.100000)"
fill="#000000" stroke="none">
<path d="M491 1180 c-220 -47 -401 -219 -456 -435 -20 -77 -19 -211 1 -289 51
-198 214 -362 417 -421 74 -21 222 -21 301 0 254 68 436 304 436 565 -1 318
-245 573 -560 585 -52 2 -115 0 -139 -5z m255 -294 c7 -19 -199 -558 -218
-570 -22 -13 -51 2 -56 28 -6 28 187 538 210 558 15 14 24 15 39 7 11 -6 22
-16 25 -23z m-322 -82 c27 -27 18 -46 -55 -120 l-72 -72 72 -73 c39 -40 71
-78 71 -85 0 -18 -28 -44 -47 -44 -9 0 -62 45 -117 100 l-101 100 106 105 c58
58 111 105 117 105 6 0 18 -7 26 -16z m519 -92 c48 -48 87 -91 87 -97 0 -16
-193 -205 -210 -205 -22 0 -40 20 -40 44 0 12 29 49 67 88 l67 67 -72 75 c-40
40 -72 79 -72 85 0 6 9 20 20 31 28 28 44 18 153 -88z"/>
</g>
</svg>
